<svg xmlns="http://www.w3.org/2000/svg" width="600" height="350"><g transform="translate(0 -702.362)"><text style="line-height:125%" x="13.056" y="766.122" font-weight="400" font-size="40" font-family="sans-serif" letter-spacing="0" word-spacing="0"><tspan x="13.056" y="766.122" font-size="30">Inputs</tspan></text><text style="line-height:125%" x="467" y="766.122" font-weight="400" font-size="40" font-family="sans-serif" letter-spacing="0" word-spacing="0"><tspan x="467" y="766.122" font-size="30">Output</tspan></text><path d="M206 944.362l-135 45M206 880.362l-135-45M400 912.362h100" fill="none" stroke="#000" stroke-width="4"/><text style="line-height:125%" x="32.352" y="832.362" font-weight="400" font-size="40" font-family="sans-serif" letter-spacing="0" word-spacing="0"><tspan x="32.352" y="832.362" font-size="22.5">x<tspan font-size="65%" baseline-shift="sub">1</tspan></tspan></text><text y="1002.362" x="32.352" style="line-height:125%" font-weight="400" font-size="40" font-family="sans-serif" letter-spacing="0" word-spacing="0"><tspan y="1002.362" x="32.352" font-size="22.5">x<tspan font-size="65%" baseline-shift="sub">2</tspan></tspan></text><text style="line-height:125%" x="514.33" y="916.682" font-weight="400" font-size="40" font-family="sans-serif" letter-spacing="0" word-spacing="0"><tspan x="514.33" y="916.682" font-size="22.5">y</tspan></text><path d="M206 880.362l86 32-86 32M290 912.362h110" fill="none" stroke="#000"/><path fill="#c80000" stroke="#000" d="M234 885.362h20v20h-20z"/><g fill="none" stroke="#fff" stroke-width="2"><path d="M240 899.362l8-8M248 899.362l-8-8"/></g><path fill="#c80000" stroke="#000" d="M234 919.362h20v20h-20z"/><g fill="none" stroke="#fff" stroke-width="2"><path d="M240 933.362l8-8M248 933.362l-8-8"/></g><path fill="#0f9640" stroke="#000" d="M290 902.362h20v20h-20z"/><g fill="none" stroke="#fff" stroke-width="2"><path d="M300 918.02v-11.315M305.657 912.362h-11.314"/></g><path fill="#ff9600" stroke="#000" d="M342 902.362h20v20h-20z"/><circle cx="300" cy="912.362" r="100" fill="none" stroke="#164bc5" stroke-width="6"/></g></svg>