<svg xmlns="http://www.w3.org/2000/svg" height="250" width="550"><g transform="translate(0 -802.36)"><path fill="#fff" d="M0 802.36h550v250H0z"/><path d="M290 907.36l160 50-160 50" stroke="#000" stroke-width="2" fill="none"/><circle cy="957.36" cx="470" r="20" fill="#164bc5"/><g font-size="40" font-family="sans-serif" word-spacing="0" letter-spacing="0"><text y="838.202" x="464.717"><tspan style="text-align:center" font-size="20" y="838.202" x="464.717" text-anchor="middle">Output Layer</tspan></text><text style="text-align:center" y="838.202" x="274.58" text-anchor="middle"><tspan style="text-align:center" font-size="20" y="838.202" x="274.58">Hidden Layer</tspan></text><text style="text-align:center" y="838.202" x="74.58" text-anchor="middle"><tspan style="text-align:center" font-size="20" y="838.202" x="74.58">Input Layer</tspan></text></g><g stroke="#000" stroke-width="2" fill="none"><path d="M90 907.36h160M90 1007.4h160M90 907.36l160 100.04M90 1007.4l160-100.04"/></g><circle cy="1007.4" cx="270" r="20" fill="#164bc5"/><circle cx="270" cy="907.36" r="20" fill="#164bc5"/><g font-size="40" font-family="sans-serif" fill="#fff" word-spacing="0" letter-spacing="0"><text y="911.862" x="263.496"><tspan font-size="17.5" y="911.862" x="263.496">h<tspan font-size="65%" baseline-shift="sub">1</tspan></tspan></text><text y="1011.862" x="263.496"><tspan font-size="17.5" y="1011.862" x="263.496">h<tspan font-size="65%" baseline-shift="sub">2</tspan></tspan></text><text y="961.862" x="463.496"><tspan font-size="17.5" y="961.862" x="463.496">o<tspan font-size="65%" baseline-shift="sub">1</tspan></tspan></text></g><g font-size="40" font-family="sans-serif" word-spacing="0" letter-spacing="0"><text y="897.362" x="213.468"><tspan font-size="15" y="897.362" x="213.468">w<tspan font-size="65%" baseline-shift="sub">1</tspan></tspan></text><text y="937.297" x="224.286"><tspan font-size="15" y="937.297" x="224.286">w<tspan font-size="65%" baseline-shift="sub">2</tspan></tspan></text><text y="983.848" x="224.286"><tspan font-size="15" y="983.848" x="224.286">w<tspan font-size="65%" baseline-shift="sub">3</tspan></tspan></text><text y="1022.882" x="213.759"><tspan font-size="15" y="1022.882" x="213.759">w<tspan font-size="65%" baseline-shift="sub">4</tspan></tspan></text><text y="924.052" x="368.614"><tspan font-size="15" y="924.052" x="368.614">w<tspan font-size="65%" baseline-shift="sub">5</tspan></tspan></text><text y="997.947" x="368.614"><tspan font-size="15" y="997.947" x="368.614">w<tspan font-size="65%" baseline-shift="sub">6</tspan></tspan></text></g><g font-size="40" font-family="sans-serif" fill="#0f9640" word-spacing="0" letter-spacing="0"><text y="877.891" x="262.638"><tspan font-size="15" y="877.891" x="262.638">b<tspan font-size="65%" baseline-shift="sub">1</tspan></tspan></text><text y="977.891" x="262.638"><tspan font-size="15" y="977.891" x="262.638">b<tspan font-size="65%" baseline-shift="sub">2</tspan></tspan></text><text y="927.891" x="462.638"><tspan font-size="15" y="927.891" x="462.638">b<tspan font-size="65%" baseline-shift="sub">3</tspan></tspan></text></g><g font-size="40" font-family="sans-serif" word-spacing="0" letter-spacing="0"><text y="912.242" x="34.37"><tspan font-size="15" y="912.242" x="34.37">weight</tspan></text><text y="1012.242" x="37.37"><tspan font-size="15" y="1012.242" x="37.37">height</tspan></text><text y="994.973" x="444.338"><tspan font-size="15" y="994.973" x="444.338">gender</tspan></text></g></g></svg>